<svg width="17" height="17" viewBox="0 0 17 17" fill="none" xmlns="http://www.w3.org/2000/svg">
<path d="M2.94231 0C2.16196 0 1.41357 0.309992 0.861782 0.861782C0.309992 1.41357 0 2.16196 0 2.94231V3.92308H17V2.94231C17 2.16196 16.69 1.41357 16.1382 0.861782C15.5864 0.309992 14.838 0 14.0577 0H2.94231ZM17 5.23077H0V14.0577C0 14.838 0.309992 15.5864 0.861782 16.1382C1.41357 16.69 2.16196 17 2.94231 17H14.0577C14.838 17 15.5864 16.69 16.1382 16.1382C16.69 15.5864 17 14.838 17 14.0577V5.23077Z" fill="#4ADDA6"/>
</svg>
