<svg width="243" height="57" viewBox="0 0 243 57" fill="none" xmlns="http://www.w3.org/2000/svg">
<path d="M7.97411 29.1032C33.2092 21.9257 113.947 11.6464 235.019 27.9501" stroke="#4ADDA6" stroke-width="14" stroke-linecap="round"/>
<path d="M14.543 32.3082C19.1953 32.3082 22.418 29.2731 22.418 25.3121V25.1832H17.6602L17.6484 25.3121C17.4844 27.0934 16.2656 28.2535 14.5547 28.2535C12.5039 28.2535 11.2266 26.5426 11.2266 23.5309V23.5192C11.2266 20.5543 12.5039 18.8434 14.543 18.8434C16.3828 18.8434 17.4844 20.0973 17.625 21.7731L17.6367 21.9137H22.3945V21.8082C22.3945 17.8356 19.2422 14.7887 14.543 14.7887C9.38672 14.7887 6.16406 17.9528 6.16406 23.5309V23.5426C6.16406 29.1207 9.35156 32.3082 14.543 32.3082ZM32.3906 32.3082C37.6523 32.3082 40.9219 28.9449 40.9219 23.5543V23.5309C40.9219 18.152 37.6406 14.7887 32.3906 14.7887C27.1758 14.7887 23.8828 18.1403 23.8828 23.5309V23.5543C23.8828 28.9567 27.1523 32.3082 32.3906 32.3082ZM32.3906 28.2535C30.3047 28.2535 28.9453 26.4723 28.9453 23.5543V23.5309C28.9453 20.6129 30.3164 18.8434 32.3906 18.8434C34.5 18.8434 35.8594 20.6246 35.8594 23.5309V23.5543C35.8594 26.4371 34.5352 28.2535 32.3906 28.2535ZM42.8555 32.0035H47.8242V23.2145H47.9062L53.9297 32.0035H58.0195V15.0934H53.0508V23.7418H52.9688L46.9922 15.0934H42.8555V32.0035ZM60.3633 32.0035H65.332V26.0153H71.5898V22.2887H65.332V19.0309H72.2461V15.0934H60.3633V32.0035ZM74.0039 32.0035H85.9336V28.066H78.9727V25.3824H85.5V21.7262H78.9727V19.0309H85.9336V15.0934H74.0039V32.0035ZM95.0742 32.3082C99.7383 32.3082 102.457 30.0934 102.457 26.6012V26.5895C102.457 23.8473 100.734 22.3707 97.1133 21.7145L95.4141 21.4098C93.7266 21.1051 93 20.7418 93 19.9801V19.9684C93 19.1949 93.7031 18.5973 95.0742 18.5973C96.4336 18.5973 97.418 19.1832 97.5117 20.109L97.5234 20.2262H102.094L102.082 19.9684C101.941 16.8043 99.5391 14.7887 95.0156 14.7887C91.0078 14.7887 88.0781 16.9332 88.0781 20.3317V20.3434C88.0781 22.9684 89.918 24.6676 93.2812 25.2653L94.9805 25.5699C96.8555 25.9098 97.5352 26.2379 97.5352 27.0348V27.0465C97.5352 27.8903 96.6211 28.4996 95.1328 28.4996C93.7266 28.4996 92.5781 27.8903 92.3789 26.9762L92.3555 26.8707H87.7852L87.7969 27.0934C87.9727 30.4332 90.6914 32.3082 95.0742 32.3082ZM111.129 32.3082C115.793 32.3082 118.512 30.0934 118.512 26.6012V26.5895C118.512 23.8473 116.789 22.3707 113.168 21.7145L111.469 21.4098C109.781 21.1051 109.055 20.7418 109.055 19.9801V19.9684C109.055 19.1949 109.758 18.5973 111.129 18.5973C112.488 18.5973 113.473 19.1832 113.566 20.109L113.578 20.2262H118.148L118.137 19.9684C117.996 16.8043 115.594 14.7887 111.07 14.7887C107.062 14.7887 104.133 16.9332 104.133 20.3317V20.3434C104.133 22.9684 105.973 24.6676 109.336 25.2653L111.035 25.5699C112.91 25.9098 113.59 26.2379 113.59 27.0348V27.0465C113.59 27.8903 112.676 28.4996 111.188 28.4996C109.781 28.4996 108.633 27.8903 108.434 26.9762L108.41 26.8707H103.84L103.852 27.0934C104.027 30.4332 106.746 32.3082 111.129 32.3082ZM120.363 32.0035H125.332V15.0934H120.363V32.0035ZM135.773 32.3082C141.035 32.3082 144.305 28.9449 144.305 23.5543V23.5309C144.305 18.152 141.023 14.7887 135.773 14.7887C130.559 14.7887 127.266 18.1403 127.266 23.5309V23.5543C127.266 28.9567 130.535 32.3082 135.773 32.3082ZM135.773 28.2535C133.688 28.2535 132.328 26.4723 132.328 23.5543V23.5309C132.328 20.6129 133.699 18.8434 135.773 18.8434C137.883 18.8434 139.242 20.6246 139.242 23.5309V23.5543C139.242 26.4371 137.918 28.2535 135.773 28.2535ZM146.238 32.0035H151.207V23.2145H151.289L157.312 32.0035H161.402V15.0934H156.434V23.7418H156.352L150.375 15.0934H146.238V32.0035ZM171.973 32.0035H176.895L179.18 22.8981H179.273L181.559 32.0035H186.48L190.84 15.0934H185.707L183.762 25.441H183.668L181.266 15.0934H177.188L174.785 25.441H174.691L172.746 15.0934H167.613L171.973 32.0035ZM190.02 32.0035H195.246L196.125 28.6403H201.188L202.066 32.0035H207.293L201.773 15.0934H195.539L190.02 32.0035ZM198.609 19.1246H198.703L200.273 25.1364H197.039L198.609 19.1246ZM208.816 32.0035H220.418V28.066H213.785V15.0934H208.816V32.0035ZM222.293 32.0035H233.895V28.066H227.262V15.0934H222.293V32.0035Z" fill="#8E12AA"/>
</svg>
