<svg width="228" height="170" viewBox="0 0 228 170" fill="none" xmlns="http://www.w3.org/2000/svg">
<path d="M81.0884 24.7264C81.0884 38.3825 69.6446 49.4529 55.5279 49.4529C41.4113 49.4529 29.9674 38.3825 29.9674 24.7264C29.9674 11.0704 41.4113 0 55.5279 0C69.6446 0 81.0884 11.0704 81.0884 24.7264Z" fill="white"/>
<path d="M199.195 24.7264C199.195 38.3825 188.146 49.4529 174.516 49.4529C160.886 49.4529 149.837 38.3825 149.837 24.7264C149.837 11.0704 160.886 0 174.516 0C188.146 0 199.195 11.0704 199.195 24.7264Z" fill="white"/>
<path d="M117.482 142.369C132.206 156.824 150.228 169.553 174.3 169.553C209.1 169.553 227.3 143.159 227.4 117.064C227.4 91.1663 208.8 63.5822 174.3 63.5822C150.299 63.5822 132.34 76.6553 116.887 91.8933L91.5956 118.981C91.317 119.279 90.9989 119.518 90.657 119.698C78.5196 132.023 66.3923 141.671 52.2 141.671C33.3 141.671 28.2 125.597 28.2 116.071C28.2 112.003 29.3 91.5632 52.2 91.5632C65.9928 91.5632 77.2387 99.9871 88.7176 111.722L107.89 91.1874C92.9795 76.3208 75.6368 63.5822 52.2 63.5822C17.9 63.5822 0 89.9756 0 116.071C0 141.969 18.3 169.553 52.3 169.553C76.4827 169.553 94.5922 155.612 110.253 139.804L131.379 116.824C131.715 116.458 132.11 116.18 132.535 115.99C145.558 102.406 158.635 91.5632 174.3 91.5632C194 91.5632 199.2 107.637 199.2 117.163C199.2 128.474 192.7 141.671 174.3 141.671C160.076 141.671 148.935 134.143 136.449 121.736L117.482 142.369Z" fill="white"/>
</svg>
