<svg width="390" height="528" viewBox="0 0 390 528" fill="none" xmlns="http://www.w3.org/2000/svg">
<path d="M69.1368 487.248C69.1368 487.248 74.0278 484.011 77.2847 480.53M77.2847 480.53C79.2064 478.476 80.5593 476.336 80.003 474.725C79.1795 472.34 77.8051 470.105 75.4406 470.45C73.618 470.716 72.6343 472.051 71.9628 473.893C70.7888 477.114 73.9632 479.578 77.2847 480.53ZM77.2847 480.53C77.9859 480.731 78.6936 480.864 79.3683 480.924C84.7131 481.392 88.243 469.537 88.243 469.537M57.0591 427.366C57.0591 427.366 61.7579 431.245 64.2446 429.334C66.3336 427.728 63.5358 423.675 65.9334 422.748C68.3619 421.81 68.0739 427.486 70.5903 427.036C73.2388 426.563 74.2419 420.712 74.2419 420.712M148.652 404.555L156.898 408.123L156.539 399.598L163.434 402.631L162.794 394.674L170.827 396.949M143.605 396.612L125.249 364.148L114.323 373.495L143.605 396.612ZM65.8577 463.317L83.0732 438.999L72.8845 434.138L65.8577 463.317ZM89.4208 398.327C87.93 397.467 86.0247 397.976 85.1652 399.464C84.3057 400.953 84.8175 402.858 86.3083 403.718C87.7991 404.579 89.7044 404.07 90.5639 402.581C91.4234 401.093 90.9116 399.188 89.4208 398.327ZM121.602 404.927C118.123 402.919 113.677 404.106 111.672 407.58C109.666 411.054 110.861 415.497 114.339 417.506C117.818 419.514 122.263 418.326 124.269 414.853C126.274 411.379 125.08 406.935 121.602 404.927ZM48.2694 412.904L68.3845 407.75L65.7931 397.696L45.678 402.851L48.2694 412.904ZM161.178 363.391L162.043 357.225L151.757 355.773L150.893 361.939L161.178 363.391ZM133.488 429.988L147.162 450.832L154.109 446.286L140.436 425.442L133.488 429.988ZM119.345 471.173C114.873 468.591 115.38 459.339 112.504 464.32C109.628 469.302 110.923 475.433 115.395 478.015C119.867 480.597 125.824 478.652 128.7 473.671C131.576 468.69 123.818 473.755 119.345 471.173ZM127.34 335.788C128.752 332.653 134.927 332.379 131.427 330.801C127.926 329.224 123.943 330.486 122.532 333.621C121.12 336.755 122.813 340.576 126.314 342.153C129.815 343.731 125.929 338.923 127.34 335.788ZM103.872 358.751L98.8195 353.144L102.588 346.616L95.6968 349.679L90.6442 344.072L91.4376 351.572L84.546 354.635L91.9279 356.207L92.7213 363.707L96.4902 357.179L103.872 358.751ZM97.1149 441.105L94.0833 437.741L96.3446 433.824L92.2097 435.662L89.1781 432.298L89.6541 436.798L85.5192 438.635L89.9483 439.579L90.4244 444.079L92.6857 440.162L97.1149 441.105Z" stroke="url(#paint0_linear_47_797)"/>
<path d="M202.467 500.789C202.467 500.789 207.358 497.552 210.615 494.071M210.615 494.071C212.537 492.017 213.889 489.877 213.333 488.266C212.51 485.881 211.135 483.646 208.771 483.991C206.948 484.257 205.964 485.592 205.293 487.434C204.119 490.655 207.293 493.119 210.615 494.071ZM210.615 494.071C211.316 494.272 212.024 494.405 212.698 494.465C218.043 494.933 221.573 483.078 221.573 483.078M190.389 440.907C190.389 440.907 195.088 444.786 197.575 442.875C199.664 441.269 196.866 437.216 199.263 436.289C201.692 435.351 201.404 441.027 203.92 440.577C206.569 440.104 207.572 434.253 207.572 434.253M281.982 418.097L290.228 421.664L289.869 413.139L296.764 416.172L296.124 408.215L304.157 410.49M276.935 410.153L258.579 377.689L247.653 387.036L276.935 410.153ZM199.188 476.858L216.403 452.54L206.215 447.679L199.188 476.858ZM222.751 411.868C221.26 411.008 219.355 411.517 218.495 413.005C217.636 414.494 218.148 416.399 219.638 417.259C221.129 418.12 223.034 417.611 223.894 416.122C224.753 414.634 224.242 412.729 222.751 411.868ZM254.932 418.468C251.453 416.46 247.007 417.647 245.002 421.121C242.996 424.595 244.191 429.038 247.669 431.047C251.148 433.055 255.593 431.867 257.599 428.394C259.604 424.92 258.41 420.476 254.932 418.468ZM181.6 426.445L201.715 421.291L199.123 411.237L179.008 416.392L181.6 426.445ZM294.508 376.932L295.373 370.766L285.087 369.314L284.223 375.48L294.508 376.932ZM266.818 443.529L280.492 464.373L287.439 459.827L273.766 438.983L266.818 443.529ZM252.675 484.714C248.203 482.132 248.71 472.88 245.834 477.861C242.959 482.843 244.253 488.974 248.725 491.556C253.198 494.138 259.155 492.193 262.03 487.212C264.906 482.231 257.148 487.296 252.675 484.714ZM260.67 349.329C262.082 346.194 268.257 345.92 264.757 344.342C261.256 342.765 257.273 344.027 255.862 347.162C254.45 350.296 256.143 354.117 259.644 355.694C263.145 357.272 259.259 352.464 260.67 349.329ZM237.202 372.292L232.15 366.685L235.919 360.157L229.027 363.22L223.974 357.613L224.768 365.113L217.876 368.176L225.258 369.748L226.051 377.248L229.82 370.72L237.202 372.292ZM230.445 454.646L227.413 451.282L229.675 447.365L225.54 449.203L222.508 445.839L222.984 450.339L218.849 452.176L223.278 453.12L223.754 457.62L226.016 453.703L230.445 454.646Z" stroke="url(#paint1_linear_47_797)"/>
<path d="M403.888 187.992C403.888 187.992 398.034 188.349 393.472 189.736M393.472 189.736C390.781 190.554 388.54 191.731 388.216 193.404C387.737 195.881 387.809 198.504 390.029 199.388C391.741 200.069 393.26 199.404 394.763 198.144C397.39 195.942 395.873 192.221 393.472 189.736ZM393.472 189.736C392.966 189.211 392.42 188.742 391.865 188.353C387.47 185.275 378.486 193.777 378.486 193.777M384.406 245.89C384.406 245.89 382.277 240.181 379.167 240.593C376.555 240.939 376.952 245.849 374.412 245.452C371.84 245.05 374.927 240.279 372.523 239.41C369.993 238.496 366.198 243.061 366.198 243.061M293.68 219.848L288.322 212.635L284.37 220.198L279.915 214.124L276.491 221.335L270.672 215.348M294.079 229.251L293.743 266.544L307.879 263.912L294.079 229.251ZM394.762 210.356L367.694 222.808L374.087 232.113L394.762 210.356ZM341.861 254.857C342.722 256.348 344.626 256.86 346.115 256C347.604 255.141 348.113 253.236 347.252 251.745C346.391 250.254 344.487 249.742 342.998 250.602C341.509 251.461 341 253.367 341.861 254.857ZM317.291 233.052C319.3 236.53 323.744 237.724 327.217 235.719C330.691 233.713 331.879 229.268 329.87 225.789C327.862 222.311 323.418 221.116 319.944 223.122C316.471 225.127 315.283 229.573 317.291 233.052ZM384.788 262.809L364.79 257.215L362.008 267.218L382.005 272.811L384.788 262.809ZM262.249 249.234L258.417 254.142L266.599 260.542L270.43 255.635L262.249 249.234ZM319.528 205.404L318.108 180.517L309.819 180.98L311.238 205.868L319.528 205.404ZM352.368 176.809C354.95 181.281 349.885 189.04 354.867 186.164C359.848 183.288 361.793 177.331 359.21 172.859C356.628 168.386 350.497 167.092 345.516 169.968C340.535 172.844 349.786 172.337 352.368 176.809ZM277.752 290.058C274.962 292.067 269.477 289.217 271.72 292.334C273.963 295.45 278.043 296.348 280.833 294.34C283.623 292.331 284.066 288.175 281.823 285.059C279.58 281.942 280.542 288.049 277.752 290.058ZM309.558 281.906L311.13 289.288L304.602 293.056L312.102 293.85L313.674 301.232L316.737 294.34L324.236 295.134L318.63 290.081L321.692 283.189L315.164 286.958L309.558 281.906ZM356.587 213.964L357.53 218.393L353.613 220.654L358.113 221.13L359.056 225.559L360.894 221.424L365.394 221.9L362.03 218.869L363.867 214.734L359.951 216.995L356.587 213.964Z" stroke="url(#paint2_linear_47_797)"/>
<path d="M161.844 339.335C161.844 339.335 166.735 336.099 169.992 332.617M169.992 332.617C171.913 330.563 173.266 328.424 172.71 326.813C171.887 324.428 170.512 322.192 168.148 322.537C166.325 322.803 165.341 324.138 164.67 325.981C163.496 329.202 166.67 331.665 169.992 332.617ZM169.992 332.617C170.693 332.818 171.401 332.952 172.075 333.011C177.42 333.48 180.95 321.625 180.95 321.625M149.766 279.454C149.766 279.454 154.465 283.333 156.952 281.421C159.041 279.815 156.243 275.762 158.64 274.836C161.069 273.897 160.781 279.574 163.297 279.124C165.946 278.65 166.949 272.799 166.949 272.799M241.359 256.643L249.605 260.211L249.246 251.686L256.141 254.718L255.501 246.761L263.534 249.036M236.312 248.7L217.956 216.236L207.03 225.583L236.312 248.7ZM158.565 315.404L175.78 291.087L165.592 286.225L158.565 315.404ZM182.128 250.415C180.637 249.554 178.732 250.063 177.872 251.552C177.013 253.041 177.525 254.945 179.015 255.806C180.506 256.667 182.411 256.158 183.271 254.669C184.13 253.18 183.619 251.276 182.128 250.415ZM214.309 257.015C210.83 255.006 206.384 256.194 204.379 259.668C202.373 263.141 203.568 267.585 207.046 269.593C210.525 271.602 214.97 270.414 216.976 266.94C218.981 263.467 217.787 259.023 214.309 257.015ZM140.976 264.992L161.092 259.838L158.5 249.784L138.385 254.938L140.976 264.992ZM253.885 215.479L254.75 209.313L244.464 207.86L243.6 214.026L253.885 215.479ZM226.195 282.076L239.869 302.919L246.816 298.374L233.143 277.53L226.195 282.076ZM212.052 323.261C207.58 320.678 208.087 311.427 205.211 316.408C202.335 321.389 203.63 327.521 208.102 330.103C212.575 332.685 218.531 330.74 221.407 325.759C224.283 320.778 216.525 325.843 212.052 323.261ZM220.047 187.875C221.459 184.741 227.634 184.467 224.134 182.889C220.633 181.311 216.65 182.573 215.239 185.708C213.827 188.843 215.52 192.663 219.021 194.241C222.522 195.819 218.636 191.01 220.047 187.875ZM196.579 210.839L191.527 205.232L195.295 198.704L188.404 201.767L183.351 196.16L184.145 203.66L177.253 206.722L184.635 208.295L185.428 215.794L189.197 209.266L196.579 210.839ZM189.822 293.193L186.79 289.829L189.052 285.912L184.917 287.75L181.885 284.386L182.361 288.885L178.226 290.723L182.655 291.666L183.131 296.166L185.393 292.249L189.822 293.193Z" stroke="url(#paint3_linear_47_797)"/>
<path d="M19.1388 337.252C19.1388 337.252 24.0297 334.016 27.2867 330.534M27.2867 330.534C29.2084 328.48 30.5612 326.34 30.005 324.729C29.1815 322.345 27.807 320.109 25.4426 320.454C23.6199 320.72 22.6362 322.055 21.9648 323.897C20.7907 327.119 23.9652 329.582 27.2867 330.534ZM27.2867 330.534C27.9878 330.735 28.6955 330.869 29.3702 330.928C34.715 331.397 38.245 319.542 38.245 319.542M7.06103 277.371C7.06103 277.371 11.7599 281.25 14.2465 279.338C16.3355 277.732 13.5377 273.679 15.9353 272.753C18.3639 271.814 18.0758 277.49 20.5923 277.041C23.2408 276.567 24.2439 270.716 24.2439 270.716M98.6538 254.56L106.9 258.128L106.541 249.603L113.436 252.635L112.796 244.678L120.829 246.953M93.6067 246.617L75.2506 214.152L64.3252 223.499L93.6067 246.617ZM15.8597 313.321L33.0751 289.003L22.8865 284.142L15.8597 313.321ZM39.4227 248.332C37.9319 247.471 36.0267 247.98 35.1672 249.469C34.3077 250.957 34.8195 252.862 36.3103 253.723C37.8011 254.583 39.7063 254.074 40.5658 252.586C41.4253 251.097 40.9135 249.192 39.4227 248.332ZM71.6035 254.931C68.1249 252.923 63.6793 254.111 61.6738 257.584C59.6684 261.058 60.8625 265.502 64.341 267.51C67.8196 269.519 72.2652 268.331 74.2707 264.857C76.2761 261.384 75.082 256.94 71.6035 254.931ZM-1.72862 262.909L18.3864 257.754L15.795 247.701L-4.32002 252.855L-1.72862 262.909ZM111.18 213.395L112.045 207.23L101.759 205.777L100.895 211.943L111.18 213.395ZM83.4904 279.993L97.1636 300.836L104.111 296.29L90.4376 275.447L83.4904 279.993ZM69.3474 321.177C64.875 318.595 65.3822 309.344 62.5063 314.325C59.6304 319.306 60.9246 325.437 65.397 328.019C69.8694 330.602 75.8264 328.657 78.7023 323.676C81.5781 318.694 73.8198 323.759 69.3474 321.177ZM77.3423 185.792C78.754 182.657 84.9294 182.384 81.4285 180.806C77.9277 179.228 73.9453 180.49 72.5336 183.625C71.1218 186.76 72.8154 190.58 76.3162 192.158C79.817 193.736 75.9306 188.927 77.3423 185.792ZM53.8741 208.756L48.8215 203.149L52.5904 196.621L45.6988 199.684L40.6461 194.077L41.4395 201.576L34.5479 204.639L41.9299 206.211L42.7233 213.711L46.4922 207.183L53.8741 208.756ZM47.1168 291.11L44.0853 287.745L46.3466 283.829L42.2116 285.666L39.18 282.302L39.6561 286.802L35.5211 288.64L39.9503 289.583L40.4263 294.083L42.6877 290.166L47.1168 291.11Z" stroke="url(#paint4_linear_47_797)"/>
<path d="M410.888 316.992C410.888 316.992 405.034 317.349 400.472 318.736M400.472 318.736C397.781 319.554 395.54 320.731 395.216 322.404C394.737 324.881 394.809 327.504 397.029 328.388C398.741 329.069 400.26 328.404 401.763 327.144C404.39 324.942 402.873 321.221 400.472 318.736ZM400.472 318.736C399.966 318.211 399.42 317.742 398.865 317.353C394.47 314.275 385.486 322.777 385.486 322.777M391.406 374.89C391.406 374.89 389.277 369.181 386.167 369.593C383.555 369.939 383.952 374.849 381.412 374.452C378.84 374.05 381.927 369.279 379.523 368.41C376.993 367.496 373.198 372.061 373.198 372.061M300.68 348.848L295.322 341.635L291.37 349.198L286.915 343.124L283.491 350.335L277.672 344.348M301.079 358.251L300.743 395.544L314.879 392.912L301.079 358.251ZM401.762 339.356L374.694 351.808L381.087 361.113L401.762 339.356ZM348.861 383.857C349.722 385.348 351.626 385.86 353.115 385C354.604 384.141 355.113 382.236 354.252 380.745C353.391 379.254 351.487 378.742 349.998 379.602C348.509 380.461 348 382.367 348.861 383.857ZM324.291 362.052C326.3 365.53 330.744 366.724 334.217 364.719C337.691 362.713 338.879 358.268 336.87 354.789C334.862 351.311 330.418 350.116 326.944 352.122C323.471 354.127 322.283 358.573 324.291 362.052ZM391.788 391.809L371.79 386.215L369.008 396.218L389.005 401.811L391.788 391.809ZM269.249 378.234L265.417 383.142L273.599 389.542L277.43 384.635L269.249 378.234ZM326.528 334.404L325.108 309.517L316.819 309.98L318.238 334.868L326.528 334.404ZM359.368 305.809C361.95 310.281 356.885 318.04 361.867 315.164C366.848 312.288 368.793 306.331 366.21 301.859C363.628 297.386 357.497 296.092 352.516 298.968C347.535 301.844 356.786 301.337 359.368 305.809ZM284.752 419.058C281.962 421.067 276.477 418.217 278.72 421.334C280.963 424.45 285.043 425.348 287.833 423.34C290.623 421.331 291.066 417.175 288.823 414.059C286.58 410.942 287.542 417.049 284.752 419.058ZM316.558 410.906L318.13 418.288L311.602 422.056L319.102 422.85L320.674 430.232L323.737 423.34L331.236 424.134L325.63 419.081L328.692 412.189L322.164 415.958L316.558 410.906ZM363.587 342.964L364.53 347.393L360.613 349.654L365.113 350.13L366.056 354.559L367.894 350.424L372.394 350.9L369.03 347.869L370.867 343.734L366.951 345.995L363.587 342.964Z" stroke="url(#paint5_linear_47_797)"/>
<path d="M19.1388 170.59C19.1388 170.59 24.0297 167.354 27.2867 163.873M27.2867 163.873C29.2084 161.818 30.5612 159.679 30.005 158.068C29.1815 155.683 27.807 153.448 25.4426 153.792C23.6199 154.058 22.6362 155.394 21.9648 157.236C20.7907 160.457 23.9652 162.921 27.2867 163.873ZM27.2867 163.873C27.9878 164.074 28.6955 164.207 29.3702 164.266C34.715 164.735 38.245 152.88 38.245 152.88M7.06103 110.709C7.06103 110.709 11.7599 114.588 14.2465 112.676C16.3355 111.071 13.5377 107.017 15.9353 106.091C18.3639 105.153 18.0758 110.829 20.5923 110.379C23.2408 109.906 24.2439 104.054 24.2439 104.054M98.6538 87.8982L106.9 91.466L106.541 82.9409L113.436 85.9734L112.796 78.0166L120.829 80.2915M93.6067 79.955L75.2506 47.4908L64.3252 56.8378L93.6067 79.955ZM15.8597 146.659L33.0751 122.342L22.8865 117.48L15.8597 146.659ZM39.4227 81.67C37.9319 80.8093 36.0267 81.3184 35.1672 82.807C34.3077 84.2957 34.8195 86.2003 36.3103 87.061C37.8011 87.9217 39.7063 87.4126 40.5658 85.924C41.4253 84.4353 40.9135 82.5307 39.4227 81.67ZM71.6035 88.2697C68.1249 86.2613 63.6793 87.4491 61.6738 90.9227C59.6684 94.3963 60.8625 98.8402 64.341 100.849C67.8196 102.857 72.2652 101.669 74.2707 98.1955C76.2761 94.7219 75.082 90.278 71.6035 88.2697ZM-1.72862 96.247L18.3864 91.0927L15.795 81.0392L-4.32002 86.1934L-1.72862 96.247ZM111.18 46.7338L112.045 40.5679L101.759 39.1155L100.895 45.2814L111.18 46.7338ZM83.4904 113.331L97.1636 134.175L104.111 129.629L90.4376 108.785L83.4904 113.331ZM69.3474 154.516C64.875 151.933 65.3822 142.682 62.5063 147.663C59.6304 152.644 60.9246 158.776 65.397 161.358C69.8694 163.94 75.8264 161.995 78.7023 157.014C81.5781 152.033 73.8198 157.098 69.3474 154.516ZM77.3423 19.1306C78.754 15.9958 84.9294 15.722 81.4285 14.1442C77.9277 12.5664 73.9453 13.8286 72.5336 16.9634C71.1218 20.0981 72.8154 23.9184 76.3162 25.4962C79.817 27.074 75.9306 22.2654 77.3423 19.1306ZM53.8741 42.0939L48.8215 36.4871L52.5904 29.9592L45.6988 33.0219L40.6461 27.4151L41.4395 34.9148L34.5479 37.9775L41.9299 39.5498L42.7233 47.0495L46.4922 40.5216L53.8741 42.0939ZM47.1168 124.448L44.0853 121.084L46.3466 117.167L42.2116 119.005L39.18 115.641L39.6561 120.14L35.5211 121.978L39.9503 122.921L40.4263 127.421L42.6877 123.505L47.1168 124.448Z" stroke="url(#paint6_linear_47_797)"/>
<path d="M245.492 140.154C245.492 140.154 248.599 135.458 251.941 132.332M251.941 132.332C253.914 130.487 255.968 129.188 257.514 129.722C259.804 130.513 261.95 131.832 261.619 134.102C261.363 135.852 260.082 136.796 258.313 137.441C255.22 138.568 252.855 135.52 251.941 132.332ZM251.941 132.332C251.748 131.658 251.62 130.979 251.563 130.331C251.113 125.2 262.495 121.811 262.495 121.811M302.98 151.749C302.98 151.749 299.256 147.238 301.091 144.851C302.633 142.845 306.524 145.531 307.413 143.229C308.314 140.898 302.865 141.174 303.297 138.758C303.751 136.216 309.369 135.253 309.369 135.253M324.879 63.8171L321.454 55.9005L329.638 56.245L326.727 49.6257L334.366 50.2403L332.182 42.5282M332.505 68.6624L363.671 86.2848L354.698 96.7736L332.505 68.6624ZM268.466 143.302L291.812 126.775L296.479 136.556L268.466 143.302ZM330.858 120.681C331.685 122.112 331.196 123.941 329.767 124.766C328.338 125.591 326.509 125.1 325.683 123.669C324.856 122.237 325.345 120.408 326.774 119.583C328.204 118.758 330.032 119.249 330.858 120.681ZM324.522 89.7862C326.45 93.1257 325.31 97.3936 321.975 99.3189C318.641 101.244 314.374 100.098 312.446 96.7583C310.518 93.4188 311.659 89.1509 314.993 87.2256C318.328 85.3003 322.594 86.4467 324.522 89.7862ZM316.864 160.187L321.812 140.876L331.464 143.364L326.516 162.675L316.864 160.187ZM364.398 51.7912L370.318 50.9614L371.712 60.8358L365.792 61.6657L364.398 51.7912ZM300.463 78.3744L280.452 65.2477L284.817 58.5782L304.827 71.7049L300.463 78.3744ZM260.924 91.9521C263.403 96.2457 272.285 95.7588 267.503 98.5197C262.721 101.281 256.835 100.038 254.356 95.7445C251.877 91.4509 253.744 85.732 258.526 82.9711C263.308 80.2102 258.445 87.6585 260.924 91.9521ZM390.898 84.2767C393.907 82.9214 394.17 76.9929 395.685 80.3538C397.2 83.7147 395.988 87.5379 392.979 88.8932C389.969 90.2485 386.302 88.6227 384.787 85.2618C383.272 81.901 387.888 85.632 390.898 84.2767ZM368.853 106.807L374.235 111.658L380.502 108.039L377.562 114.655L382.945 119.506L375.745 118.744L372.804 125.361L371.295 118.274L364.095 117.512L370.362 113.894L368.853 106.807ZM289.79 113.294L293.02 116.204L296.78 114.034L295.016 118.003L298.245 120.914L293.926 120.457L292.161 124.426L291.256 120.174L286.936 119.717L290.696 117.546L289.79 113.294Z" stroke="url(#paint7_linear_47_797)"/>
<defs>
<linearGradient id="paint0_linear_47_797" x1="86.499" y1="343.5" x2="84.999" y2="506.5" gradientUnits="userSpaceOnUse">
<stop stop-color="#C57BFF"/>
<stop offset="1" stop-color="#C57BFF" stop-opacity="0"/>
</linearGradient>
<linearGradient id="paint1_linear_47_797" x1="240" y1="383.5" x2="120.5" y2="542.5" gradientUnits="userSpaceOnUse">
<stop stop-color="#C57BFF"/>
<stop offset="1" stop-color="#C57BFF" stop-opacity="0"/>
</linearGradient>
<linearGradient id="paint2_linear_47_797" x1="312.739" y1="270.801" x2="495.729" y2="192.852" gradientUnits="userSpaceOnUse">
<stop stop-color="#C57BFF"/>
<stop offset="1" stop-color="#C57BFF" stop-opacity="0"/>
</linearGradient>
<linearGradient id="paint3_linear_47_797" x1="132" y1="290.5" x2="215.5" y2="164" gradientUnits="userSpaceOnUse">
<stop stop-color="#C57BFF"/>
<stop offset="1" stop-color="#C57BFF" stop-opacity="0"/>
</linearGradient>
<linearGradient id="paint4_linear_47_797" x1="16.9998" y1="230" x2="155.5" y2="263" gradientUnits="userSpaceOnUse">
<stop stop-color="#C57BFF"/>
<stop offset="0.866225" stop-color="#C57BFF" stop-opacity="0"/>
</linearGradient>
<linearGradient id="paint5_linear_47_797" x1="359.114" y1="410.945" x2="255.67" y2="313.116" gradientUnits="userSpaceOnUse">
<stop stop-color="#C57BFF"/>
<stop offset="0.866225" stop-color="#C57BFF" stop-opacity="0"/>
</linearGradient>
<linearGradient id="paint6_linear_47_797" x1="4.99976" y1="66.0001" x2="122.5" y2="187" gradientUnits="userSpaceOnUse">
<stop stop-color="#C57BFF"/>
<stop offset="1" stop-color="#C57BFF" stop-opacity="0"/>
</linearGradient>
<linearGradient id="paint7_linear_47_797" x1="385.5" y1="30.0001" x2="214.5" y2="151.5" gradientUnits="userSpaceOnUse">
<stop stop-color="#C57BFF"/>
<stop offset="0.884525" stop-color="#C57BFF" stop-opacity="0"/>
</linearGradient>
</defs>
</svg>
