<svg width="228" height="31" viewBox="0 0 228 31" fill="none" xmlns="http://www.w3.org/2000/svg">
<path d="M7.22701 19.2651C30.289 14.265 105.16 5.92556 220.149 12.5689" stroke="#4ADDA6" stroke-width="14" stroke-linecap="round"/>
<path d="M8.51953 21H13.4883V16.3828H16.0781C20.0391 16.3828 22.5352 14.0273 22.5352 10.2773V10.2539C22.5352 6.50391 20.0391 4.08984 16.0781 4.08984H8.51953V21ZM14.8945 7.82812C16.5352 7.82812 17.5195 8.63672 17.5195 10.2539V10.2773C17.5195 11.8945 16.5352 12.7148 14.8945 12.7148H13.4883V7.82812H14.8945ZM24.293 21H29.2617V15.4453H30.8906L33.5625 21H39.1172L35.9062 14.707C37.5469 13.9102 38.625 12.0117 38.625 9.90234V9.87891C38.625 6.12891 36.2578 4.08984 31.9102 4.08984H24.293V21ZM29.2617 11.9414V7.75781H31.3359C32.6484 7.75781 33.5625 8.61328 33.5625 9.84375V9.86719C33.5625 11.1094 32.6719 11.9414 31.3359 11.9414H29.2617ZM48.75 21.3047C54.0117 21.3047 57.2812 17.9414 57.2812 12.5508V12.5273C57.2812 7.14844 54 3.78516 48.75 3.78516C43.5352 3.78516 40.2422 7.13672 40.2422 12.5273V12.5508C40.2422 17.9531 43.5117 21.3047 48.75 21.3047ZM48.75 17.25C46.6641 17.25 45.3047 15.4688 45.3047 12.5508V12.5273C45.3047 9.60938 46.6758 7.83984 48.75 7.83984C50.8594 7.83984 52.2188 9.62109 52.2188 12.5273V12.5508C52.2188 15.4336 50.8945 17.25 48.75 17.25ZM59.2148 21H64.1836V15.0117H70.4414V11.2852H64.1836V8.02734H71.0977V4.08984H59.2148V21ZM72.8555 21H77.8242V4.08984H72.8555V21ZM80.168 21H91.7695V17.0625H85.1367V4.08984H80.168V21ZM93.6445 21H105.574V17.0625H98.6133V14.3789H105.141V10.7227H98.6133V8.02734H105.574V4.08984H93.6445V21ZM112.465 21H117.434V16.3828H120.023C123.984 16.3828 126.48 14.0273 126.48 10.2773V10.2539C126.48 6.50391 123.984 4.08984 120.023 4.08984H112.465V21ZM118.84 7.82812C120.48 7.82812 121.465 8.63672 121.465 10.2539V10.2773C121.465 11.8945 120.48 12.7148 118.84 12.7148H117.434V7.82812H118.84ZM128.238 21H133.207V4.08984H128.238V21ZM143.52 21.3047C148.172 21.3047 151.395 18.2695 151.395 14.3086V14.1797H146.637L146.625 14.3086C146.461 16.0898 145.242 17.25 143.531 17.25C141.48 17.25 140.203 15.5391 140.203 12.5273V12.5156C140.203 9.55078 141.48 7.83984 143.52 7.83984C145.359 7.83984 146.461 9.09375 146.602 10.7695L146.613 10.9102H151.371V10.8047C151.371 6.83203 148.219 3.78516 143.52 3.78516C138.363 3.78516 135.141 6.94922 135.141 12.5273V12.5391C135.141 18.1172 138.328 21.3047 143.52 21.3047ZM156.844 21H161.812V8.02734H166.266V4.08984H152.391V8.02734H156.844V21ZM175.406 21.3047C179.93 21.3047 182.871 18.8086 182.871 14.9766V4.08984H177.902V14.4844C177.902 16.2656 177.035 17.25 175.418 17.25C173.801 17.25 172.934 16.2656 172.934 14.4844V4.08984H167.965V14.9766C167.965 18.832 170.941 21.3047 175.406 21.3047ZM185.215 21H190.184V15.4453H191.812L194.484 21H200.039L196.828 14.707C198.469 13.9102 199.547 12.0117 199.547 9.90234V9.87891C199.547 6.12891 197.18 4.08984 192.832 4.08984H185.215V21ZM190.184 11.9414V7.75781H192.258C193.57 7.75781 194.484 8.61328 194.484 9.84375V9.86719C194.484 11.1094 193.594 11.9414 192.258 11.9414H190.184ZM201.574 21H213.504V17.0625H206.543V14.3789H213.07V10.7227H206.543V8.02734H213.504V4.08984H201.574V21Z" fill="#8E12AA"/>
</svg>
