<svg width="194" height="67" viewBox="0 0 194 67" fill="none" xmlns="http://www.w3.org/2000/svg">
<path d="M8 34.137C28.6032 25.9452 93.0721 14.2341 186.122 32.9238" stroke="#4ADDA6" stroke-width="14" stroke-linecap="round"/>
<path d="M16.293 37.3047C20.9453 37.3047 24.168 34.2695 24.168 30.3086V30.1797H19.4102L19.3984 30.3086C19.2344 32.0898 18.0156 33.25 16.3047 33.25C14.2539 33.25 12.9766 31.5391 12.9766 28.5273V28.5156C12.9766 25.5508 14.2539 23.8398 16.293 23.8398C18.1328 23.8398 19.2344 25.0938 19.375 26.7695L19.3867 26.9102H24.1445V26.8047C24.1445 22.832 20.9922 19.7852 16.293 19.7852C11.1367 19.7852 7.91406 22.9492 7.91406 28.5273V28.5391C7.91406 34.1172 11.1016 37.3047 16.293 37.3047ZM34.1406 37.3047C39.4023 37.3047 42.6719 33.9414 42.6719 28.5508V28.5273C42.6719 23.1484 39.3906 19.7852 34.1406 19.7852C28.9258 19.7852 25.6328 23.1367 25.6328 28.5273V28.5508C25.6328 33.9531 28.9023 37.3047 34.1406 37.3047ZM34.1406 33.25C32.0547 33.25 30.6953 31.4688 30.6953 28.5508V28.5273C30.6953 25.6094 32.0664 23.8398 34.1406 23.8398C36.25 23.8398 37.6094 25.6211 37.6094 28.5273V28.5508C37.6094 31.4336 36.2852 33.25 34.1406 33.25ZM44.6055 37H48.9414V27.2031H49.0234L52.7969 37H55.457L59.2305 27.2031H59.3125V37H63.6484V20.0898H57.9062L54.168 30.1562H54.0859L50.3477 20.0898H44.6055V37ZM66.0039 37H70.3398V27.2031H70.4219L74.1953 37H76.8555L80.6289 27.2031H80.7109V37H85.0469V20.0898H79.3047L75.5664 30.1562H75.4844L71.7461 20.0898H66.0039V37ZM94.8438 37.3047C99.3672 37.3047 102.309 34.8086 102.309 30.9766V20.0898H97.3398V30.4844C97.3398 32.2656 96.4727 33.25 94.8555 33.25C93.2383 33.25 92.3711 32.2656 92.3711 30.4844V20.0898H87.4023V30.9766C87.4023 34.832 90.3789 37.3047 94.8438 37.3047ZM104.652 37H109.621V28.2109H109.703L115.727 37H119.816V20.0898H114.848V28.7383H114.766L108.789 20.0898H104.652V37ZM122.16 37H127.129V20.0898H122.16V37ZM133.281 37H138.25V24.0273H142.703V20.0898H128.828V24.0273H133.281V37ZM144.402 37H149.371V20.0898H144.402V37ZM151.715 37H163.645V33.0625H156.684V30.3789H163.211V26.7227H156.684V24.0273H163.645V20.0898H151.715V37ZM172.785 37.3047C177.449 37.3047 180.168 35.0898 180.168 31.5977V31.5859C180.168 28.8438 178.445 27.3672 174.824 26.7109L173.125 26.4062C171.438 26.1016 170.711 25.7383 170.711 24.9766V24.9648C170.711 24.1914 171.414 23.5938 172.785 23.5938C174.145 23.5938 175.129 24.1797 175.223 25.1055L175.234 25.2227H179.805L179.793 24.9648C179.652 21.8008 177.25 19.7852 172.727 19.7852C168.719 19.7852 165.789 21.9297 165.789 25.3281V25.3398C165.789 27.9648 167.629 29.6641 170.992 30.2617L172.691 30.5664C174.566 30.9062 175.246 31.2344 175.246 32.0312V32.043C175.246 32.8867 174.332 33.4961 172.844 33.4961C171.438 33.4961 170.289 32.8867 170.09 31.9727L170.066 31.8672H165.496L165.508 32.0898C165.684 35.4297 168.402 37.3047 172.785 37.3047Z" fill="#8E12AA"/>
</svg>
