<svg width="104" height="38" viewBox="0 0 104 38" fill="none" xmlns="http://www.w3.org/2000/svg">
<path d="M7.99999 21C18.4703 15.6933 50.8456 7.54745 96.5837 17.4176" stroke="#4ADDA6" stroke-width="14" stroke-linecap="round"/>
<path d="M14.0781 24.3047C18.7422 24.3047 21.4609 22.0898 21.4609 18.5977V18.5859C21.4609 15.8438 19.7383 14.3672 16.1172 13.7109L14.418 13.4062C12.7305 13.1016 12.0039 12.7383 12.0039 11.9766V11.9648C12.0039 11.1914 12.707 10.5938 14.0781 10.5938C15.4375 10.5938 16.4219 11.1797 16.5156 12.1055L16.5273 12.2227H21.0977L21.0859 11.9648C20.9453 8.80078 18.543 6.78516 14.0195 6.78516C10.0117 6.78516 7.08203 8.92969 7.08203 12.3281V12.3398C7.08203 14.9648 8.92188 16.6641 12.2852 17.2617L13.9844 17.5664C15.8594 17.9062 16.5391 18.2344 16.5391 19.0312V19.043C16.5391 19.8867 15.625 20.4961 14.1367 20.4961C12.7305 20.4961 11.582 19.8867 11.3828 18.9727L11.3594 18.8672H6.78906L6.80078 19.0898C6.97656 22.4297 9.69531 24.3047 14.0781 24.3047ZM23.3125 24H28.2812V7.08984H23.3125V24ZM38.7578 24.3047C43.668 24.3047 46.5859 21.4453 46.5859 16.8047V14.5195H38.8516V17.9414H41.8047L41.7812 18.1172C41.6055 19.4648 40.4922 20.25 38.875 20.25C36.6953 20.25 35.2773 18.5391 35.2773 15.4688V15.457C35.2773 12.457 36.5195 10.8398 38.6289 10.8398C40.0586 10.8398 41.125 11.5195 41.4648 12.6445L41.5 12.7617H46.3867L46.375 12.6445C46.0352 9.28125 42.8477 6.78516 38.6055 6.78516C33.4023 6.78516 30.2148 9.97266 30.2148 15.5156V15.5273C30.2148 21.1523 33.3906 24.3047 38.7578 24.3047ZM48.5547 24H53.5234V15.2109H53.6055L59.6289 24H63.7188V7.08984H58.75V15.7383H58.668L52.6914 7.08984H48.5547V24ZM73.5039 24.3047C78.0273 24.3047 80.9688 21.8086 80.9688 17.9766V7.08984H76V17.4844C76 19.2656 75.1328 20.25 73.5156 20.25C71.8984 20.25 71.0312 19.2656 71.0312 17.4844V7.08984H66.0625V17.9766C66.0625 21.832 69.0391 24.3047 73.5039 24.3047ZM83.3125 24H88.2812V19.3828H90.8711C94.832 19.3828 97.3281 17.0273 97.3281 13.2773V13.2539C97.3281 9.50391 94.832 7.08984 90.8711 7.08984H83.3125V24ZM89.6875 10.8281C91.3281 10.8281 92.3125 11.6367 92.3125 13.2539V13.2773C92.3125 14.8945 91.3281 15.7148 89.6875 15.7148H88.2812V10.8281H89.6875Z" fill="#8E12AA"/>
</svg>
