<svg width="22" height="22" viewBox="0 0 22 22" fill="none" xmlns="http://www.w3.org/2000/svg">
<path d="M5.24101 12.4458L1.33601 15.8288C0.886007 16.2188 0.888007 16.9338 1.34201 17.3868L4.12901 20.1688C4.95801 20.9968 6.18901 21.2338 7.17601 20.7548C13.101 17.8931 17.8861 13.1147 20.756 7.19377C21.235 6.20777 20.998 4.97777 20.169 4.14977L17.356 1.34177C16.901 0.886767 16.182 0.885768 15.792 1.33977L12.427 5.25977C12.075 5.66977 12.121 6.30677 12.533 6.71777L13.899 8.08177C13.9722 8.1516 14.0204 8.24352 14.0363 8.34342C14.0522 8.44331 14.0349 8.54567 13.987 8.63477C12.7031 10.8643 10.8512 12.7138 8.62001 13.9948C8.53076 14.0427 8.42823 14.0601 8.32816 14.0442C8.22809 14.0283 8.136 13.98 8.06601 13.9068L6.70501 12.5468C6.29101 12.1348 5.65201 12.0898 5.24101 12.4458Z" stroke="white" stroke-width="1.5" stroke-linecap="round" stroke-linejoin="round"/>
</svg>
