<svg width="18" height="18" viewBox="0 0 18 18" fill="none" xmlns="http://www.w3.org/2000/svg">
<path d="M3.81668 10.3012L0.302388 13.3459C-0.102588 13.6969 -0.100788 14.3404 0.307788 14.7481L2.81594 17.2519C3.56199 17.9971 4.66983 18.2104 5.55807 17.7793C10.8902 15.2038 15.1966 10.9033 17.7793 5.57446C18.2104 4.68706 17.9971 3.58007 17.2511 2.83487L14.7195 0.307686C14.31 -0.101812 13.663 -0.102711 13.312 0.305887L10.2837 3.83387C9.96691 4.20287 10.0083 4.77616 10.3791 5.14606L11.6084 6.37365C11.6743 6.4365 11.7177 6.51923 11.732 6.60914C11.7463 6.69904 11.7307 6.79116 11.6876 6.87135C10.5322 8.87794 8.86558 10.5424 6.8576 11.6953C6.77728 11.7385 6.68501 11.7541 6.59495 11.7398C6.50489 11.7255 6.42201 11.6821 6.35902 11.6161L5.1342 10.3921C4.76162 10.0213 4.18656 9.98083 3.81668 10.3012Z" fill="white"/>
</svg>
