<svg width="20" height="20" viewBox="0 0 20 20" fill="none" xmlns="http://www.w3.org/2000/svg">
<path d="M4.24101 11.4459L0.336007 14.8289C-0.113993 15.2189 -0.111993 15.9339 0.342007 16.3869L3.12901 19.1689C3.95801 19.9969 5.18901 20.2339 6.17601 19.7549C12.101 16.8933 16.8861 12.1148 19.756 6.19389C20.235 5.20789 19.998 3.97789 19.169 3.14989L16.356 0.341889C15.901 -0.113111 15.182 -0.114111 14.792 0.33989L11.427 4.25989C11.075 4.66989 11.121 5.30689 11.533 5.71789L12.899 7.08189C12.9722 7.15172 13.0204 7.24364 13.0363 7.34354C13.0522 7.44344 13.0349 7.54579 12.987 7.63489C11.7031 9.86444 9.85124 11.7139 7.62001 12.9949C7.53076 13.0429 7.42823 13.0602 7.32816 13.0443C7.22809 13.0284 7.136 12.9802 7.06601 12.9069L5.70501 11.5469C5.29101 11.1349 4.65201 11.0899 4.24101 11.4459Z" fill="#4ADDA6"/>
</svg>
