<svg width="22" height="18" viewBox="0 0 22 18" fill="none" xmlns="http://www.w3.org/2000/svg">
<path d="M19.963 2.76923H16.5L15.675 0.524176C15.618 0.370553 15.5136 0.237763 15.3759 0.143945C15.2383 0.0501265 15.0742 -0.000144054 14.906 3.10062e-07H7.09398C6.75023 3.10062e-07 6.44213 0.210165 6.32755 0.524176L5.5 2.76923H2.03704C0.911574 2.76923 0 3.6544 0 4.74725V16.022C0 17.1148 0.911574 18 2.03704 18H19.963C21.0884 18 22 17.1148 22 16.022V4.74725C22 3.6544 21.0884 2.76923 19.963 2.76923ZM11 14.044C8.74907 14.044 6.92593 12.2736 6.92593 10.0879C6.92593 7.9022 8.74907 6.13187 11 6.13187C13.2509 6.13187 15.0741 7.9022 15.0741 10.0879C15.0741 12.2736 13.2509 14.044 11 14.044ZM8.55556 10.0879C8.55556 10.7174 8.81309 11.3212 9.27152 11.7663C9.72994 12.2115 10.3517 12.4615 11 12.4615C11.6483 12.4615 12.2701 12.2115 12.7285 11.7663C13.1869 11.3212 13.4444 10.7174 13.4444 10.0879C13.4444 9.45839 13.1869 8.85465 12.7285 8.4095C12.2701 7.96436 11.6483 7.71429 11 7.71429C10.3517 7.71429 9.72994 7.96436 9.27152 8.4095C8.81309 8.85465 8.55556 9.45839 8.55556 10.0879Z" fill="#8E12AA"/>
</svg>
