<svg width="53" height="53" viewBox="0 0 53 53" fill="none" xmlns="http://www.w3.org/2000/svg">
<circle cx="26.5" cy="26.5" r="26.5" fill="#8E12AA"/>
<path d="M32.2373 30.1929L37.3907 30.562C37.9846 30.6044 38.4888 30.0974 38.4881 29.4561L38.4846 25.5182C38.4839 24.3465 37.781 23.3085 36.7444 22.9493C30.5313 20.7832 23.7689 20.7784 17.5528 22.9358C16.5169 23.2943 15.8147 24.3317 15.8154 25.5033L15.819 29.478C15.819 30.1215 16.3267 30.6306 16.9235 30.5853L22.0747 30.1929C22.6136 30.1519 23.0315 29.6689 23.0307 29.087L23.0293 27.1566C23.027 27.0554 23.0578 26.9563 23.1172 26.8744C23.1766 26.7926 23.2613 26.7324 23.3581 26.7033C25.8425 26.0346 28.4598 26.0363 30.9433 26.7083C31.0403 26.7374 31.1251 26.7977 31.1846 26.8797C31.2441 26.9617 31.2751 27.0609 31.2728 27.1622L31.2735 29.0863C31.2749 29.6703 31.6949 30.154 32.2373 30.1929Z" fill="#4ADDA6"/>
</svg>
