<svg width="22" height="18" viewBox="0 0 22 18" fill="none" xmlns="http://www.w3.org/2000/svg">
<path d="M5 17V8C3 8 1 8.512 1 10.565V13C1 14.0609 1.42143 15.0783 2.17157 15.8284C2.92172 16.5786 3.93913 17 5 17ZM5 17V7C5 5.4087 5.63214 3.88258 6.75736 2.75736C7.88258 1.63214 9.4087 1 11 1C12.5913 1 14.1174 1.63214 15.2426 2.75736C16.3679 3.88258 17 5.4087 17 7V17M17 17V8C19 8 21 8.512 21 10.565V13C21 14.0609 20.5786 15.0783 19.8284 15.8284C19.0783 16.5786 18.0609 17 17 17Z" stroke="#4ADDA6" stroke-width="2" stroke-linecap="round" stroke-linejoin="round"/>
</svg>
