<svg width="26" height="26" viewBox="0 0 26 26" fill="none" xmlns="http://www.w3.org/2000/svg">
<path d="M14 1L4 10.5V24H22V14L23.5 10.5L14 1Z" fill="white"/>
<path d="M1.29975 14.3001H2.59978V23.4C2.59978 24.8339 3.7659 26 5.19983 26H20.8002C22.2341 26 23.4002 24.8339 23.4002 23.4V14.3001H24.7002C24.9573 14.3001 25.2086 14.2238 25.4224 14.0809C25.6361 13.9381 25.8027 13.7351 25.9011 13.4976C25.9994 13.2601 26.0252 12.9987 25.975 12.7466C25.9249 12.4945 25.8011 12.2628 25.6194 12.081L13.9191 0.381158C13.7985 0.260329 13.6552 0.164471 13.4975 0.0990679C13.3398 0.0336646 13.1707 0 13 0C12.8293 0 12.6602 0.0336646 12.5025 0.0990679C12.3448 0.164471 12.2015 0.260329 12.0809 0.381158L0.380631 12.081C0.198875 12.2628 0.075104 12.4945 0.0249651 12.7466C-0.0251738 12.9987 0.000570648 13.2601 0.0989438 13.4976C0.197317 13.7351 0.363902 13.9381 0.577639 14.0809C0.791377 14.2238 1.04267 14.3001 1.29975 14.3001ZM10.3999 23.4V16.9001H15.6001V23.4H10.3999ZM13 3.13843L20.8002 10.9384L20.8015 23.4H18.2001V16.9001C18.2001 15.4662 17.034 14.3001 15.6001 14.3001H10.3999C8.96601 14.3001 7.79989 15.4662 7.79989 16.9001V23.4H5.19983V10.9384L13 3.13843Z" fill="black"/>
</svg>
