<svg width="20" height="22" viewBox="0 0 20 22" fill="none" xmlns="http://www.w3.org/2000/svg">
<path d="M18.8889 0H3.33333C1.99333 0 0 0.8789 0 3.3V18.7C0 21.1211 1.99333 22 3.33333 22H20V19.8H3.34667C2.83333 19.7868 2.22222 19.5866 2.22222 18.7C2.22222 17.8134 2.83333 17.6132 3.34667 17.6H20V1.1C20 0.808262 19.8829 0.528472 19.6746 0.322183C19.4662 0.115892 19.1836 0 18.8889 0ZM7.22556 3.3C7.66847 3.3 8.09324 3.47419 8.40642 3.78424C8.71961 4.09429 8.89556 4.51482 8.89556 4.9533C8.89556 5.39178 8.71961 5.81231 8.40642 6.12236C8.09324 6.43241 7.66847 6.6066 7.22556 6.6066C6.78264 6.6066 6.35787 6.43241 6.04469 6.12236C5.7315 5.81231 5.55556 5.39178 5.55556 4.9533C5.55556 4.51482 5.7315 4.09429 6.04469 3.78424C6.35787 3.47419 6.78264 3.3 7.22556 3.3ZM4.44444 12.1L7.77778 8.8L9.44444 10.3389L12.7778 6.6L16.6667 12.1H4.44444Z" fill="#8E12AA"/>
</svg>
