<svg width="14" height="15" viewBox="0 0 14 15" fill="none" xmlns="http://www.w3.org/2000/svg">
<path d="M13.5433 7.89589C13.8373 7.49182 14 6.99673 14 6.48162C14 5.66437 13.5608 4.8908 12.8538 4.45942C12.6717 4.34838 12.4645 4.28994 12.2535 4.29014H8.057L8.162 2.05316C8.1865 1.51257 8.00275 0.999285 7.64575 0.607949C7.47055 0.415062 7.25918 0.261595 7.0247 0.157031C6.79022 0.052466 6.53762 -0.000973813 6.2825 1.34331e-05C5.3725 1.34331e-05 4.5675 0.637071 4.326 1.54897L2.82275 7.20969H2.8175V15H11.0827C11.2437 15 11.4012 14.9672 11.5465 14.9017C12.3795 14.5322 12.9167 13.6858 12.9167 12.7466C12.9167 12.5173 12.8853 12.2916 12.8223 12.0732C13.1163 11.6691 13.279 11.174 13.279 10.6589C13.279 10.4296 13.2475 10.2039 13.1845 9.98544C13.4785 9.58137 13.6412 9.08628 13.6412 8.57117C13.6377 8.34183 13.6063 8.11431 13.5433 7.89589ZM0 7.79214V14.4175C0 14.7397 0.25025 15 0.56 15H1.6975V7.20969H0.56C0.25025 7.20969 0 7.46997 0 7.79214Z" fill="white"/>
</svg>
