<svg width="23" height="23" viewBox="0 0 23 23" fill="none" xmlns="http://www.w3.org/2000/svg">
<path d="M2 21.5V4L6 1H17.5L22.5 5.5V17L19 21.5H10.5H2Z" fill="white"/>
<path d="M16.1 0H6.9C3.09465 0 0 3.09465 0 6.9V21.85C0 22.155 0.12116 22.4475 0.336827 22.6632C0.552494 22.8788 0.845001 23 1.15 23H16.1C19.9053 23 23 19.9053 23 16.1V6.9C23 3.09465 19.9053 0 16.1 0ZM20.7 16.1C20.7 18.6369 18.6369 20.7 16.1 20.7H2.3V6.9C2.3 4.3631 4.3631 2.3 6.9 2.3H16.1C18.6369 2.3 20.7 4.3631 20.7 6.9V16.1Z" fill="black"/>
<path d="M5.75 8.05H17.25V10.35H5.75V8.05ZM5.75 12.65H13.8V14.95H5.75V12.65Z" fill="black"/>
</svg>
