<svg width="14" height="22" viewBox="0 0 14 22" fill="none" xmlns="http://www.w3.org/2000/svg">
<path d="M13 15.292C12.25 16.1442 11.3269 16.8265 10.2922 17.2935C9.25757 17.7605 8.13517 18.0013 7 18M7 18C5.86483 18.0013 4.74243 17.7605 3.70776 17.2935C2.67309 16.8265 1.74995 16.1442 1 15.292M7 18V21M5 21H9M7 1C9.20914 1 11 2.79086 11 5V10C11 12.2091 9.20914 14 7 14C4.79086 14 3 12.2091 3 10V5C3 2.79086 4.79086 1 7 1Z" stroke="#4ADDA6" stroke-width="2" stroke-linecap="round" stroke-linejoin="round"/>
</svg>
