<svg width="24" height="25" viewBox="0 0 24 25" fill="none" xmlns="http://www.w3.org/2000/svg">
<path d="M19 15.292C18.25 16.1442 17.3269 16.8265 16.2922 17.2935C15.2576 17.7605 14.1352 18.0013 13 18M13 18C11.8648 18.0013 10.7424 17.7605 9.70776 17.2935C8.67309 16.8265 7.74995 16.1442 7 15.292M13 18V21M11 21H15M13 1C15.2091 1 17 2.79086 17 5V10C17 12.2091 15.2091 14 13 14C10.7909 14 9 12.2091 9 10V5C9 2.79086 10.7909 1 13 1Z" stroke="#4ADDA6" stroke-width="2" stroke-linecap="round" stroke-linejoin="round"/>
<line x1="2" y1="22.8787" x2="21.8787" y2="3" stroke="#8E12AA" stroke-width="3" stroke-linecap="round"/>
</svg>
