<svg width="20" height="19" viewBox="0 0 20 19" fill="none" xmlns="http://www.w3.org/2000/svg">
<path d="M17.5875 0.633333C17.5875 0.465363 17.5217 0.304272 17.4044 0.185499C17.2872 0.066726 17.1283 0 16.9625 0H3.2125C3.04674 0 2.88777 0.066726 2.77056 0.185499C2.65335 0.304272 2.5875 0.465363 2.5875 0.633333V1.26667H17.5875V0.633333Z" fill="#8E12AA"/>
<path d="M18.825 3.16667C18.825 2.9987 18.7592 2.83761 18.6419 2.71883C18.5247 2.60006 18.3658 2.53333 18.2 2.53333H1.95C1.78424 2.53333 1.62527 2.60006 1.50806 2.71883C1.39085 2.83761 1.325 2.9987 1.325 3.16667V3.8H18.825V3.16667Z" fill="#8E12AA"/>
<path d="M18.825 5.06667H1.175C0.863371 5.06667 0.564505 5.19211 0.344149 5.4154C0.123794 5.6387 0 5.94155 0 6.25733V17.8093C0 18.1251 0.123794 18.428 0.344149 18.6513C0.564505 18.8746 0.863371 19 1.175 19H18.825C19.1366 19 19.4355 18.8746 19.6558 18.6513C19.8762 18.428 20 18.1251 20 17.8093V6.25733C20 5.94155 19.8762 5.6387 19.6558 5.4154C19.4355 5.19211 19.1366 5.06667 18.825 5.06667ZM4.1 7.25167C4.47084 7.25167 4.83335 7.3631 5.14169 7.57187C5.45004 7.78065 5.69036 8.07739 5.83227 8.42457C5.97419 8.77175 6.01132 9.15377 5.93897 9.52234C5.86662 9.8909 5.68805 10.2294 5.42583 10.4952C5.1636 10.7609 4.82951 10.9418 4.46579 11.0152C4.10208 11.0885 3.72508 11.0508 3.38247 10.907C3.03986 10.7632 2.74702 10.5197 2.54099 10.2072C2.33497 9.8948 2.225 9.52745 2.225 9.15167C2.225 8.64776 2.42254 8.16448 2.77417 7.80816C3.12581 7.45184 3.60272 7.25167 4.1 7.25167ZM17.5 16.4667H2.5L7.1625 11.7357C7.24561 11.6521 7.35794 11.6053 7.475 11.6053C7.59206 11.6053 7.70439 11.6521 7.7875 11.7357L10.0875 14.0663L13.2562 10.7667C13.3394 10.6831 13.4517 10.6363 13.5687 10.6363C13.6858 10.6363 13.7981 10.6831 13.8812 10.7667L17.5 14.4337V16.4667Z" fill="#8E12AA"/>
</svg>
