<svg width="23" height="26" viewBox="0 0 23 26" fill="none" xmlns="http://www.w3.org/2000/svg">
<path d="M17.5107 14.4C16.9584 14.4 16.5107 14.8477 16.5107 15.4C16.5107 15.9523 16.9584 16.4 17.5107 16.4V14.4ZM17.9338 15.4L17.9341 14.4H17.9338V15.4ZM21.5114 18.5536L20.5192 18.6778L20.5192 18.678L21.5114 18.5536ZM21.9814 22.3024L22.9737 22.1782L22.9737 22.178L21.9814 22.3024ZM19.5952 25L19.5954 24H19.5952V25ZM3.4048 25V24L3.40458 24L3.4048 25ZM1.01856 22.3024L2.01081 22.4266L2.01083 22.4265L1.01856 22.3024ZM1.48739 18.5536L0.495135 18.4294L0.49512 18.4295L1.48739 18.5536ZM5.06736 15.4L5.06697 16.4H5.06736V15.4ZM5.48931 16.4C6.04159 16.4 6.48931 15.9523 6.48931 15.4C6.48931 14.8477 6.04159 14.4 5.48931 14.4V16.4ZM16.5107 7C16.5107 9.75975 14.269 12 11.5 12V14C15.3702 14 18.5107 10.8677 18.5107 7H16.5107ZM11.5 12C8.73099 12 6.48931 9.75975 6.48931 7H4.48931C4.48931 10.8677 7.62978 14 11.5 14V12ZM6.48931 7C6.48931 4.24025 8.73099 2 11.5 2V0C7.62978 0 4.48931 3.13233 4.48931 7H6.48931ZM11.5 2C14.269 2 16.5107 4.24025 16.5107 7H18.5107C18.5107 3.13233 15.3702 0 11.5 0V2ZM17.5107 16.4H17.9338V14.4H17.5107V16.4ZM17.9336 16.4C18.5692 16.4002 19.1827 16.6321 19.6587 17.0517L20.9812 15.5514C20.1397 14.8096 19.0562 14.4003 17.9341 14.4L17.9336 16.4ZM19.6587 17.0517C20.1347 17.4713 20.4405 18.0496 20.5192 18.6778L22.5037 18.4294C22.3644 17.3166 21.8228 16.2932 20.9812 15.5514L19.6587 17.0517ZM20.5192 18.678L20.9892 22.4268L22.9737 22.178L22.5036 18.4292L20.5192 18.678ZM20.9892 22.4266C21.0138 22.6234 20.9963 22.8231 20.9376 23.0126L22.8483 23.6037C22.9909 23.1428 23.0336 22.6569 22.9737 22.1782L20.9892 22.4266ZM20.9376 23.0126C20.879 23.2021 20.7806 23.3771 20.6489 23.526L22.147 24.8511C22.4666 24.4897 22.7057 24.0645 22.8483 23.6037L20.9376 23.0126ZM20.6489 23.526C20.5173 23.6749 20.3552 23.7942 20.1736 23.876L20.9945 25.6997C21.4344 25.5017 21.8273 25.2125 22.147 24.8511L20.6489 23.526ZM20.1736 23.876C19.9919 23.9577 19.7948 24 19.5954 24L19.595 26C20.0775 26.0001 20.5545 25.8978 20.9945 25.6997L20.1736 23.876ZM19.5952 24H3.4048V26H19.5952V24ZM3.40458 24C3.20517 24 3.00809 23.9577 2.82643 23.876L2.00553 25.6997C2.44548 25.8978 2.92253 26.0001 3.40502 26L3.40458 24ZM2.82643 23.876C2.64477 23.7942 2.48275 23.6749 2.35105 23.526L0.853035 24.8511C1.17268 25.2125 1.56556 25.5017 2.00553 25.6997L2.82643 23.876ZM2.35105 23.526C2.21936 23.3771 2.12099 23.2021 2.06237 23.0126L0.151707 23.6037C0.294279 24.0645 0.53338 24.4898 0.853035 24.8511L2.35105 23.526ZM2.06237 23.0126C2.00375 22.8231 1.98618 22.6234 2.01081 22.4266L0.0263008 22.1782C-0.0336245 22.6569 0.00913239 23.1428 0.151707 23.6037L2.06237 23.0126ZM2.01083 22.4265L2.47966 18.6777L0.49512 18.4295L0.0262856 22.1783L2.01083 22.4265ZM2.47964 18.6778C2.55833 18.0493 2.86437 17.4707 3.34072 17.0511L2.0187 15.5504C1.17651 16.2923 0.634511 17.316 0.495135 18.4294L2.47964 18.6778ZM3.34072 17.0511C3.81711 16.6315 4.431 16.3998 5.06697 16.4L5.06774 14.4C3.94518 14.3996 2.86085 14.8085 2.0187 15.5504L3.34072 17.0511ZM5.06736 16.4H5.48931V14.4H5.06736V16.4Z" fill="white"/>
</svg>
