<svg width="21" height="16" viewBox="0 0 21 16" fill="none" xmlns="http://www.w3.org/2000/svg">
<path d="M19.8844 2.23333L15.75 4.6V1.33333C15.75 0.979711 15.6117 0.640573 15.3656 0.390524C15.1194 0.140476 14.7856 0 14.4375 0H2.625C1.92881 0 1.26113 0.280951 0.768845 0.781048C0.276562 1.28115 0 1.95942 0 2.66667V13.3333C0 14.0406 0.276562 14.7189 0.768845 15.219C1.26113 15.719 1.92881 16 2.625 16H14.4375C14.7856 16 15.1194 15.8595 15.3656 15.6095C15.6117 15.3594 15.75 15.0203 15.75 14.6667V11.3867L19.8844 13.7533C19.9904 13.8237 20.1129 13.8645 20.2394 13.8716C20.3659 13.8787 20.492 13.8519 20.6051 13.7938C20.7181 13.7357 20.8142 13.6484 20.8835 13.5406C20.9528 13.4329 20.993 13.3085 21 13.18V2.8C20.9919 2.67205 20.9509 2.5485 20.8812 2.44165C20.8114 2.33481 20.7153 2.24841 20.6024 2.19107C20.4896 2.13374 20.3639 2.10747 20.2379 2.11488C20.1119 2.1223 19.99 2.16314 19.8844 2.23333Z" fill="#8E12AA"/>
</svg>
