<svg width="24" height="25" viewBox="0 0 24 25" fill="none" xmlns="http://www.w3.org/2000/svg">
<path d="M11 5H13M6.233 4.834L6.678 2.608C6.76866 2.15444 7.01371 1.74633 7.37144 1.45314C7.72918 1.15995 8.17747 0.999817 8.64 1H15.36C15.8225 0.999817 16.2708 1.15995 16.6286 1.45314C16.9863 1.74633 17.2313 2.15444 17.322 2.608L17.767 4.834C17.8369 5.18279 18.0043 5.50459 18.2498 5.76198C18.4953 6.01938 18.8089 6.20178 19.154 6.288C19.967 6.49138 20.6887 6.96068 21.2044 7.6213C21.72 8.28192 22.0001 9.09595 22 9.934V17C22 18.0609 21.5786 19.0783 20.8284 19.8284C20.0783 20.5786 19.0609 21 18 21H6C4.93913 21 3.92172 20.5786 3.17157 19.8284C2.42143 19.0783 2 18.0609 2 17V9.934C1.99992 9.09595 2.27998 8.28192 2.79564 7.6213C3.31131 6.96068 4.033 6.49138 4.846 6.288C5.19111 6.20178 5.50466 6.01938 5.75019 5.76198C5.99572 5.50459 6.16315 5.18279 6.233 4.834ZM16 13C16 15.2091 14.2091 17 12 17C9.79086 17 8 15.2091 8 13C8 10.7909 9.79086 9 12 9C14.2091 9 16 10.7909 16 13Z" stroke="#4ADDA6" stroke-width="2" stroke-linecap="round" stroke-linejoin="round"/>
<line x1="2" y1="22.8787" x2="21.8787" y2="3" stroke="#8E12AA" stroke-width="3" stroke-linecap="round"/>
</svg>
